<?xml version="1.0" encoding="utf-8"?>
<!-- Generator: Adobe Illustrator 23.0.0, SVG Export Plug-In . SVG Version: 6.00 Build 0)  -->
<svg version="1.1" id="Capa_1" xmlns="http://www.w3.org/2000/svg" xmlns:xlink="http://www.w3.org/1999/xlink" x="0px" y="0px"
	 viewBox="0 0 256 256" style="enable-background:new 0 0 256 256;" xml:space="preserve">
<style type="text/css">
	.st0{clip-path:url(#SVGID_2_);fill:#D6DC1B;}
	.st1{clip-path:url(#SVGID_2_);}
	.st2{fill:#FBF36B;}
	.st3{clip-path:url(#SVGID_4_);fill:#E66728;}
	.st4{clip-path:url(#SVGID_4_);}
	.st5{fill:#FFFFFF;}
	.st6{clip-path:url(#SVGID_6_);fill:#E66728;}
	.st7{clip-path:url(#SVGID_6_);}
	.st8{clip-path:url(#SVGID_8_);fill:#E66728;}
	.st9{clip-path:url(#SVGID_8_);}
	.st10{clip-path:url(#SVGID_10_);fill:#E66728;}
	.st11{opacity:0.4;clip-path:url(#SVGID_10_);}
	.st12{fill:#E66728;}
</style>
<g>
	<rect class="st12" width="256" height="256"/>
	<g>
		<path class="st5" d="M16.98,143.05V100.9h8.02v15.03c1.35-2.17,4.65-4.15,9.12-4.15c8.81,0,13.89,6.87,13.89,15.91
			c0,9.23-5.63,16.1-14.19,16.1c-4.16,0-7.34-1.86-8.93-4.46v3.72H16.98z M32.4,119.15c-4.1,0-7.53,3.03-7.53,8.61
			c0,5.51,3.43,8.67,7.53,8.67c4.16,0,7.46-3.1,7.46-8.67C39.86,122.18,36.56,119.15,32.4,119.15"/>
		<path class="st5" d="M59.14,125.42l7.4-1.12c1.71-0.25,2.26-1.11,2.26-2.17c0-2.17-1.65-3.97-5.08-3.97
			c-3.55,0-5.51,2.29-5.75,4.96l-7.22-1.55c0.49-4.77,4.83-10.04,12.91-10.04c9.54,0,13.09,5.45,13.09,11.59v15
			c0,1.61,0.18,3.78,0.37,4.83h-7.46c-0.18-0.81-0.31-2.48-0.31-3.66c-1.53,2.42-4.41,4.52-8.87,4.52c-6.43,0-10.34-4.4-10.34-9.17
			C50.14,129.2,54.12,126.17,59.14,125.42 M68.8,130.63v-1.36l-6.79,1.05c-2.08,0.31-3.73,1.49-3.73,3.84c0,1.8,1.28,3.53,3.92,3.53
			C65.62,137.69,68.8,136.02,68.8,130.63"/>
		<path class="st5" d="M88.35,143.1h-8.14v-31.2h7.89v4.3c1.84-3.18,5.45-4.62,8.69-4.62c7.46,0,10.89,5.43,10.89,12.17v19.35h-8.14
			v-17.91c0-3.43-1.65-6.12-5.57-6.12c-3.55,0-5.63,2.81-5.63,6.37V143.1z"/>
		<path class="st5" d="M129.4,120.71c-0.92-0.19-1.71-0.25-2.45-0.25c-4.16,0-7.77,2.06-7.77,8.68v14.04h-8.14v-31.2h7.89v4.81
			c1.83-4.06,6-4.81,8.57-4.81c0.67,0,1.28,0.06,1.9,0.13V120.71z"/>
		<path class="st5" d="M159.38,133.93c-1.53,5.2-6.3,9.55-13.7,9.55c-8.26,0-15.54-5.94-15.54-16.09c0-9.61,7.1-15.85,14.81-15.85
			c9.3,0,14.87,5.93,14.87,15.6c0,1.16-0.12,2.39-0.12,2.51h-21.54c0.18,3.98,3.55,6.85,7.59,6.85c3.79,0,5.87-1.9,6.85-4.59
			L159.38,133.93z M151.8,124.08c-0.12-3-2.08-5.94-6.73-5.94c-4.22,0-6.55,3.18-6.73,5.94H151.8z"/>
		<path class="st5" d="M169.48,142.26c0.55,3.3,3.18,5.69,7.04,5.69c5.14,0,8.02-2.57,8.02-8.38v-2.2
			c-1.22,1.96-4.04,3.85-8.38,3.85c-8.01,0-14.01-6.18-14.01-14.62c0-7.95,5.75-14.68,14.01-14.68c4.77,0,7.53,2.08,8.57,4.1v-4.08
			h7.83v27.39c0,8.26-4.47,15.79-15.79,15.79c-8.26,0-13.77-5.14-14.62-10.89L169.48,142.26z M184.66,126.59
			c0-4.65-3.18-7.59-7.1-7.59c-4.04,0-7.22,2.94-7.22,7.59c0,4.71,3,7.65,7.22,7.65C181.72,134.24,184.66,131.24,184.66,126.59"/>
		<rect x="196.35" y="111.91" class="st5" width="8.14" height="31.3"/>
		<path class="st5" d="M239.02,127.51c0,9.24-6.79,15.97-15.79,15.97s-15.79-6.73-15.79-15.97c0-9.3,6.79-15.97,15.79-15.97
			S239.02,118.21,239.02,127.51 M230.88,127.51c0-5.69-3.67-8.57-7.65-8.57c-3.98,0-7.65,2.88-7.65,8.57c0,5.63,3.67,8.57,7.65,8.57
			C227.21,136.08,230.88,133.2,230.88,127.51"/>
	</g>
</g>
</svg>
